<svg height="512pt" viewBox="0 0 512 512" width="512pt" xmlns="http://www.w3.org/2000/svg"><path d="m76 270c3.839844 0 7.675781-1.464844 10.605469-4.394531l109.394531-109.394531 49.394531 49.394531c5.859375 5.859375 15.351563 5.859375 21.210938 0l154.394531-154.394531v23.789062c0 8.289062 6.710938 15 15 15s15-6.710938 15-15v-60c0-.492188-.027344-.988281-.074219-1.476562-.023437-.246094-.070312-.484376-.105469-.722657-.035156-.242187-.0625-.484375-.109374-.722656-.054688-.292969-.136719-.574219-.207032-.859375-.050781-.183594-.089844-.371094-.144531-.554688-.089844-.300781-.199219-.589843-.308594-.882812-.0625-.164062-.113281-.332031-.179687-.492188-.125-.300781-.269532-.59375-.410156-.882812-.070313-.148438-.136719-.296875-.210938-.441406-.171875-.320313-.359375-.625-.550781-.929688-.066407-.109375-.125-.21875-.195313-.324218-.269531-.402344-.554687-.792969-.859375-1.167969-.003906-.003907-.003906-.007813-.007812-.011719-.648438-.792969-1.375-1.519531-2.167969-2.167969-.003906-.003906-.007812-.003906-.011719-.007812-.375-.304688-.765625-.589844-1.167969-.859375-.105468-.070313-.214843-.128906-.324218-.195313-.304688-.191406-.609375-.378906-.929688-.550781-.144531-.078125-.292968-.140625-.441406-.210938-.289062-.144531-.582031-.285156-.882812-.410156-.160157-.066406-.328126-.117187-.492188-.179687-.292969-.109375-.582031-.21875-.882812-.308594-.183594-.054687-.371094-.09375-.554688-.144531-.285156-.070313-.566406-.152344-.859375-.207032-.238281-.046874-.480469-.074218-.722656-.109374-.238281-.035157-.476563-.0820318-.722657-.1054692-.488281-.046875-.984374-.0742188-1.476562-.0742188h-60c-8.289062 0-15 6.710938-15 15s6.710938 15 15 15h23.789062l-143.789062 143.789062-49.394531-49.394531c-5.859375-5.859375-15.351563-5.859375-21.210938 0l-120 120c-5.859375 5.859375-5.859375 15.351563 0 21.210938 2.929688 2.929687 6.765625 4.394531 10.605469 4.394531zm0 0"/><path d="m0 497c0 8.289062 6.710938 15 15 15h120c8.289062 0 15-6.710938 15-15v-21h-150zm0 0"/><path d="m135 410h-120c-8.289062 0-15 6.710938-15 15v21h150v-21c0-8.289062-6.710938-15-15-15zm0 0"/><path d="m181 497c0 8.289062 6.710938 15 15 15h120c8.289062 0 15-6.710938 15-15v-21h-150zm0 0"/><path d="m362 410h150v36h-150zm0 0"/><path d="m497 212h-120c-8.289062 0-15 6.710938-15 15v21h150v-21c0-8.289062-6.710938-15-15-15zm0 0"/><path d="m362 278h150v36h-150zm0 0"/><path d="m362 344h150v36h-150zm0 0"/><path d="m362 497c0 8.289062 6.710938 15 15 15h120c8.289062 0 15-6.710938 15-15v-21h-150zm0 0"/><path d="m181 410h150v36h-150zm0 0"/><path d="m316 344h-120c-8.289062 0-15 6.710938-15 15v21h150v-21c0-8.289062-6.710938-15-15-15zm0 0"/></svg>