<svg height="512pt" viewBox="0 0 512 512.001" width="512pt" xmlns="http://www.w3.org/2000/svg"><path d="m302 90c-66.183594 0-120 53.832031-120 120s53.816406 120 120 120 120-53.832031 120-120-53.816406-120-120-120zm70.605469 100.605469-75 75c-2.929688 2.929687-6.769531 4.394531-10.605469 4.394531s-7.675781-1.464844-10.605469-4.394531l-45-45c-5.859375-5.859375-5.859375-15.351563 0-21.210938s15.351563-5.859375 21.210938 0l34.394531 34.394531 64.394531-64.394531c5.859375-5.859375 15.351563-5.859375 21.210938 0s5.859375 15.351563 0 21.210938zm0 0"/><path d="m4.394531 443.972656c-5.859375 5.859375-5.859375 15.351563 0 21.210938l42.421875 42.421875c2.929688 2.929687 6.769532 4.394531 10.605469 4.394531s7.675781-1.464844 10.605469-4.394531l75.183594-75.183594-63.632813-63.632813zm0 0"/><path d="m302 0c-115.78125 0-210 94.203125-210 210 0 41.636719 12.328125 80.375 33.3125 113.054688l-24.523438 24.523437 63.632813 63.632813 24.523437-24.523438c32.679688 20.984375 71.421876 33.3125 113.054688 33.3125 115.78125 0 210-94.203125 210-210s-94.21875-210-210-210zm0 360c-82.707031 0-150-67.296875-150-150s67.292969-150 150-150c82.703125 0 150 67.296875 150 150s-67.296875 150-150 150zm0 0"/></svg>